# xmcd CD database file
#
# Track frame offsets:
#	150
#	38833
#	74756
#	114969
#	148289
#	182402
#	205884
#	225809
#	257056
#	281152
#
# Disc length: 3975 seconds
#
# Revision: 1
# Processed by: cddbd v1.5PL3 Copyright (c) Steve Scherf et al.
# Submitted via: CDex 1.50beta10
#
DISCID=910f850a
DTITLE=Nils Wogram - Getting Rooted
DYEAR=2003
DGENRE=Jazz
TTITLE0=The Yellow Hair Man
TTITLE1=Concrete View
TTITLE2=Introducing the Ambassador
TTITLE3=Quality Time
TTITLE4=Changing Directions
TTITLE5=Slow Motion
TTITLE6=Dragon Pearl Massage Music
TTITLE7=Wild 13
TTITLE8=Places I Know
TTITLE9=My Modem's World
EXTD=YEAR: 2003
EXTT0=
EXTT1=
EXTT2=
EXTT3=
EXTT4=
EXTT5=
EXTT6=
EXTT7=
EXTT8=
EXTT9=
PLAYORDER=
